<?xml version="1.0" standalone="no"?><!DOCTYPE svg PUBLIC "-//W3C//DTD SVG 1.1//EN" "http://www.w3.org/Graphics/SVG/1.1/DTD/svg11.dtd"><svg t="1766836092153" class="icon" viewBox="0 0 1024 1024" version="1.1" xmlns="http://www.w3.org/2000/svg" p-id="1605" xmlns:xlink="http://www.w3.org/1999/xlink" width="200" height="200"><path d="M646.3 612.6c112.4-50.6 191.1-163 191.1-292.3C837.4 146.1 691.3 0 517.1 0S196.7 146.1 196.7 320.4c0 129.3 78.7 236.1 185.5 286.6C208 652 73.1 792.5 45 972.3c0 22.5 16.9 45 39.3 50.6 22.5 5.6 45-11.2 50.6-33.7C163 815 326 680.1 517.1 680.1S871.2 815 899.3 989.2c5.6 22.5 22.5 33.7 39.3 33.7h5.6c22.5-5.6 39.3-22.5 33.7-50.6C949.8 798.1 815 657.6 646.3 612.6zM281 320.4c0-129.3 106.8-236.1 236.1-236.1s236.1 106.8 236.1 236.1-106.9 236-236.1 236S281 449.6 281 320.4z" p-id="1606" fill="#515151"></path></svg>