<?xml version="1.0" standalone="no"?><!DOCTYPE svg PUBLIC "-//W3C//DTD SVG 1.1//EN" "http://www.w3.org/Graphics/SVG/1.1/DTD/svg11.dtd"><svg t="1766837615555" class="icon" viewBox="0 0 1024 1024" version="1.1" xmlns="http://www.w3.org/2000/svg" p-id="6393" xmlns:xlink="http://www.w3.org/1999/xlink" width="200" height="200"><path d="M723.95 425.814H331.238l-0.999-119.87c0-100.91 81.498-182.985 181.714-182.985 100.214 0 181.711 82.074 181.711 182.985v59.299c0 16.718 13.539 30.286 30.287 30.286 16.747 0 30.285-13.569 30.285-30.286v-59.299c0-134.317-108.695-243.555-242.283-243.555-133.59 0-242.284 109.239-242.284 243.796l1.028 123.625c-52.635 13.144-91.885 60.48-91.885 117.144v287.712c0 66.81 54.332 121.14 121.142 121.14h423.995c66.81 0 121.141-54.332 121.141-121.14v-287.71c0.002-66.81-54.331-121.142-121.14-121.142z m60.572 408.854c0 33.404-27.166 60.57-60.572 60.57H299.954c-33.406 0-60.572-27.165-60.572-60.57V546.956c0-33.406 27.166-60.571 60.572-60.571h423.995c33.404 0 60.57 27.165 60.57 60.571l0.003 287.712M511.95 577.24c-16.719 0-30.286 13.538-30.286 30.286v121.14c0 16.748 13.57 30.287 30.286 30.287 16.717 0 30.285-13.538 30.285-30.286v-121.14c0.002-16.748-13.566-30.286-30.285-30.286z" fill="#515151" p-id="6394"></path></svg>