<?xml version="1.0" standalone="no"?><!DOCTYPE svg PUBLIC "-//W3C//DTD SVG 1.1//EN" "http://www.w3.org/Graphics/SVG/1.1/DTD/svg11.dtd"><svg t="1766831733026" class="icon" viewBox="0 0 1024 1024" version="1.1" xmlns="http://www.w3.org/2000/svg" p-id="4096" xmlns:xlink="http://www.w3.org/1999/xlink" width="200" height="200"><path d="M770.15 926.63c-11.24 0-22.48-2.89-32.5-8.68L615.8 847.6c-20.05-11.57-32.5-33.14-32.5-56.29v-140.7c0-23.15 12.45-44.72 32.5-56.29l121.85-70.35c20.05-11.58 44.95-11.58 65 0l121.85 70.35c20.05 11.58 32.5 33.15 32.5 56.29v140.7c0 23.15-12.45 44.72-32.5 56.29l-121.85 70.35c-10.02 5.79-21.26 8.68-32.5 8.68zM653.3 788.43l116.85 67.46L887 788.43V653.5l-116.85-67.46L653.3 653.5v134.93z" fill="#515151" p-id="4097"></path><path d="M770.1 721.67m-60 0a60 60 0 1 0 120 0 60 60 0 1 0-120 0Z" fill="#515151" p-id="4098"></path><path d="M502.9 540.89c-58.76 0-114.01-22.88-155.56-64.44s-64.44-96.8-64.44-155.56 22.88-114.01 64.44-155.56c41.55-41.55 96.8-64.44 155.56-64.44s114.01 22.88 155.56 64.44c41.55 41.55 64.44 96.8 64.44 155.56s-22.88 114.01-64.44 155.56-96.79 64.44-155.56 64.44z m0-370c-82.71 0-150 67.29-150 150s67.29 150 150 150 150-67.29 150-150-67.29-150-150-150z" fill="#515151" p-id="4099"></path><path d="M484.53 911.82H101.14c-19.43 0-35.13-15.77-35.12-35.2 0.03-54.56 10.73-107.5 31.82-157.37 20.39-48.2 49.57-91.49 86.73-128.65 37.16-37.16 80.45-66.34 128.65-86.73 49.61-20.98 102.26-31.69 156.52-31.82 20.53-0.05 37.42 17.05 35.96 37.53-1.3 18.15-16.43 32.47-34.91 32.47-89.42 0-173.49 34.82-236.72 98.05-52.9 52.9-85.92 117.61-95.29 190.41-0.77 5.99 3.89 11.31 9.93 11.31h334.97c20.55 0 37.12 16.83 35.77 37.33-1.19 18.25-16.37 32.67-34.92 32.67z" fill="#515151" p-id="4100"></path></svg>