<?xml version="1.0" standalone="no"?><!DOCTYPE svg PUBLIC "-//W3C//DTD SVG 1.1//EN" "http://www.w3.org/Graphics/SVG/1.1/DTD/svg11.dtd"><svg t="1766836058980" class="icon" viewBox="0 0 1024 1024" version="1.1" xmlns="http://www.w3.org/2000/svg" p-id="13191" xmlns:xlink="http://www.w3.org/1999/xlink" width="200" height="200"><path d="M922.9 337.6c-22.6-53.3-54.8-101.1-95.9-142.2-41.1-41.1-88.9-73.4-142.2-95.9C629.7 76.1 571 64.3 510.7 64.3S391.8 76.2 336.6 99.5c-53.3 22.6-101.1 54.8-142.2 95.9-41.1 41.1-73.4 88.9-95.9 142.2-23.4 55.1-35.2 113.8-35.2 174.1s11.9 118.9 35.2 174.1c22.6 53.3 54.8 101.1 95.9 142.2 41 41 88.9 73.3 142.2 95.8 55.1 23.4 113.7 35.2 174.1 35.2 60.3 0 118.9-11.8 174.1-35.1 53.3-22.6 101.1-54.8 142.2-95.9 41-41.1 73.3-88.9 95.9-142.2 23.4-55.1 35.2-113.8 35.2-174.1s-11.9-118.9-35.2-174.1zM877 666.4c-17.9 42.4-42.8 80.9-74 114.7-31-45.5-72.5-83.6-120.6-110.4L658 714.4c43.7 24.4 81.1 59.5 108.2 101.7v0.1c-30.4 25.6-64.2 46.3-100.8 61.8-49 20.7-101 31.2-154.7 31.2S405 898.7 356 878c-37.3-15.8-71.6-36.9-102.3-63 13.3-20.7 29.2-39.9 47.4-57.1 56.7-53.5 130.8-82.9 208.8-82.9v-0.4c104.8 0 190-85.3 190.1-190.1 0-104.8-85.3-190.1-190.1-190.1s-190.1 85.3-190.1 190.1c0 65.1 32.9 122.7 83 157-50.3 15.9-96.7 43-136 80-18.8 17.7-35.4 37.2-49.7 58.1-30.6-33.5-55-71.5-72.7-113.2-20.7-49-31.2-101-31.2-154.7S123.7 406 144.4 357c20-47.4 48.7-89.9 85.2-126.4 36.6-36.5 79.1-65.2 126.4-85.2 49-20.7 101-31.2 154.7-31.2 53.6 0 105.7 10.5 154.7 31.2 47.4 20 89.9 48.7 126.4 85.2C828.3 267.2 857 309.7 877 357c20.7 49 31.2 101 31.2 154.7S897.7 617.4 877 666.4zM369.8 484.6c0-77.3 62.9-140.1 140.1-140.1s140 62.8 140.1 140.1c0 77.3-62.9 140.1-140.1 140.1-77.3 0-140.1-62.9-140.1-140.1z" p-id="13192" fill="#515151"></path></svg>