<?xml version="1.0" standalone="no"?><!DOCTYPE svg PUBLIC "-//W3C//DTD SVG 1.1//EN" "http://www.w3.org/Graphics/SVG/1.1/DTD/svg11.dtd"><svg t="1766831898090" class="icon" viewBox="0 0 1024 1024" version="1.1" xmlns="http://www.w3.org/2000/svg" p-id="6104" xmlns:xlink="http://www.w3.org/1999/xlink" width="200" height="200"><path d="M401.666 229.146c16.506 0 29.887 13.396 29.887 29.922 0 16.29-13.001 29.538-29.181 29.914l-0.706 0.008H150.978c-15.372 0-27.822 12.176-28.196 27.27l-0.009 0.7v441.226c0 15.183 12.218 27.589 27.497 27.961l0.708 0.009h122.917c16.506 0 29.887 13.396 29.887 29.922 0 16.29-13.002 29.539-29.182 29.914l-0.705 0.008H150.978c-48.073 0-87.189-38.503-87.966-86.36L63 758.186V316.96c0-48.044 38.635-87.027 86.524-87.801l1.454-0.012h250.688zM652.686 167c109.873 0 198.86 89.7 198.86 200.247 0 67.571-33.246 127.353-84.187 163.622C877.529 576.6 955 685 955 811.475c0 16.525-13.38 29.922-29.887 29.922-16.27 0-29.503-13.017-29.878-29.216l-0.008-0.706c0-134.719-109.59-243.98-244.84-243.98-133.897 0-242.646 107.087-244.808 239.946l-0.033 4.034c0 16.525-13.38 29.922-29.886 29.922S345.773 828 345.773 811.475c0-127.595 78.848-236.793 190.571-281.814-49.999-36.374-82.52-95.584-82.52-162.414C453.825 256.7 542.813 167 652.687 167zM349.539 547.355c16.506 0 29.886 13.397 29.886 29.922 0 16.29-13 29.539-29.18 29.914l-0.706 0.008H180.247c-16.505 0-29.886-13.396-29.886-29.922 0-16.29 13-29.539 29.181-29.914l0.705-0.008H349.54z m303.147-320.51c-76.77 0-139.088 62.815-139.088 140.402 0 77.588 62.317 140.404 139.088 140.404 76.77 0 139.087-62.816 139.087-140.404 0-77.587-62.317-140.403-139.087-140.403z m-270.13 159.967c16.507 0 29.887 13.396 29.887 29.922 0 16.29-13 29.539-29.18 29.914l-0.706 0.008h-202.31c-16.505 0-29.886-13.397-29.886-29.922 0-16.29 13-29.539 29.181-29.914l0.705-0.008h202.31z" fill="#515151" p-id="6105"></path></svg>