<?xml version="1.0" standalone="no"?><!DOCTYPE svg PUBLIC "-//W3C//DTD SVG 1.1//EN" "http://www.w3.org/Graphics/SVG/1.1/DTD/svg11.dtd"><svg t="1775399823678" class="icon" viewBox="0 0 1024 1024" version="1.1" xmlns="http://www.w3.org/2000/svg" p-id="49096" xmlns:xlink="http://www.w3.org/1999/xlink" width="200" height="200"><path d="M35.308966 211.853793V17.659483c0.299991-2.629923 0.619982-5.299845 1.749948-7.659776 1.729949-3.599895 4.699862-6.549808 8.239759-8.239759C48.498579 0.219994 49.49855 0.399988 52.958448 0.01h918.043105l3.939884 0.439987c2.489927 0.869975 5.009853 1.769948 7.059793 3.4099 3.119909 2.489927 5.329844 6.039823 6.209819 9.869711 0.299991 1.289962 0.299991 2.629923 0.439987 3.939884v194.204311h17.659482l3.939885 0.439987c1.239964 0.419988 2.539926 0.719979 3.729891 1.309961 4.799859 2.309932 8.389754 6.849799 9.54972 11.96965 0.299991 1.289962 0.299991 2.629923 0.439987 3.939884v564.953449c-0.139996 1.309962-0.139996 2.649922-0.439987 3.919885-1.179965 5.189848-4.819859 9.709716-9.54972 11.989649-3.199906 1.539955-4.199877 1.35996-7.659776 1.749949h-17.659483v194.20431c-0.299991 2.629923-0.619982 5.299845-1.749948 7.659776-1.729949 3.579895-4.699862 6.529809-8.239759 8.239758-3.199906 1.539955-4.199877 1.35996-7.659776 1.749949H52.968448c-2.629923-0.159995-5.219847-0.749978-7.659775-1.749949a17.929475 17.929475 0 0 1-8.239759-8.239758c-1.539955-3.209906-1.35996-4.199877-1.749949-7.659776V812.116208H17.659483c-3.459899-0.389989-4.469869-0.209994-7.659776-1.749949A18.001473 18.001473 0 0 1 0.449987 798.37661c-0.299991-1.269963-0.299991-2.609924-0.439987-3.919885V229.513276c0.439987-3.969884 1.409959-7.959767 3.849887-11.019677a17.799479 17.799479 0 0 1 6.13982-4.889857c3.199906-1.539955 4.199877-1.35996 7.659776-1.749949h17.649483z m918.043104 600.262415h-70.617931v38.508871a54.098415 54.098415 0 0 1 30.069119 26.799215 53.704427 53.704427 0 0 1 0 45.938654c-11.459664 23.779303-42.088767 36.738924-68.038007 25.93924a53.948419 53.948419 0 0 1-32.129059-41.518783 53.831423 53.831423 0 0 1 15.909534-45.708661 52.988448 52.988448 0 0 1 18.889447-11.559661v-38.378876H741.498276v38.508872a54.006418 54.006418 0 0 1 29.779128 26.219232 53.667428 53.667428 0 0 1 0.279992 46.518637c-11.459664 23.779303-42.088767 36.738924-68.038007 25.94924a54.015418 54.015418 0 0 1-32.129059-41.538784 53.842423 53.842423 0 0 1 15.909534-45.70866 52.988448 52.988448 0 0 1 18.889447-11.559662v-38.378875H600.262414v38.508871a54.006418 54.006418 0 0 1 29.779128 26.219232 53.667428 53.667428 0 0 1 0.279992 46.518637c-11.459664 23.779303-42.088767 36.738924-68.038007 25.94924a54.015418 54.015418 0 0 1-32.129059-41.538783 53.842423 53.842423 0 0 1 15.909534-45.708661 52.988448 52.988448 0 0 1 18.889447-11.559661v-38.378876H459.016552v38.508872a54.006418 54.006418 0 0 1 29.779128 26.219232 53.667428 53.667428 0 0 1 0.279992 46.518637c-11.459664 23.779303-42.088767 36.738924-68.038007 25.94924a54.015418 54.015418 0 0 1-32.129059-41.538783 53.842423 53.842423 0 0 1 15.909534-45.708661 52.988448 52.988448 0 0 1 18.889447-11.559661v-38.378876H317.78069v38.508872c12.549632 4.569866 23.409314 13.769597 29.499136 25.649248 7.419783 14.459576 7.639776 32.42905 0.559983 47.088621-11.459664 23.779303-42.088767 36.738924-68.038006 25.93924a53.998418 53.998418 0 0 1-32.169058-41.858774 53.911421 53.911421 0 0 1 15.70954-45.158677c5.439841-5.239846 12.009648-9.22973 19.11944-11.759655v-38.398875H176.544828v38.508872c12.549632 4.569866 23.409314 13.769597 29.499136 25.649248 7.419783 14.459576 7.639776 32.42905 0.559983 47.088621-11.459664 23.779303-42.088767 36.738924-68.038007 25.949239a54.015418 54.015418 0 0 1-32.129058-41.538783 53.875422 53.875422 0 0 1 15.67954-45.498667c5.439841-5.239846 12.009648-9.22973 19.11944-11.759655v-38.398875H70.617931v176.544828h882.734139V812.116208z m-653.350859 70.617931c-11.649659 0.109997-21.189379 13.949591-15.839536 25.189262 3.809888 8.029765 14.299581 12.219642 22.619337 8.809742 9.179731-3.73989 13.749597-16.009531 8.769743-24.92927-3.099909-5.44984-8.809742-8.88974-15.079558-9.069734h-0.469986z m282.481724 0c-11.629659 0.109997-21.189379 13.949591-15.839536 25.189262 3.809888 8.029765 14.299581 12.219642 22.619337 8.809742 9.179731-3.73989 13.749597-16.009531 8.769744-24.92927-3.099909-5.44984-8.809742-8.88974-15.079559-9.069734h-0.469986z m141.235862 0c-11.629659 0.109997-21.189379 13.949591-15.839536 25.189262 3.809888 8.029765 14.299581 12.219642 22.619338 8.809742 9.179731-3.73989 13.749597-16.009531 8.769743-24.92927-3.099909-5.44984-8.809742-8.88974-15.079558-9.069734h-0.469987z m-282.471724 0c-11.629659 0.109997-21.189379 13.949591-15.839536 25.189262 3.809888 8.029765 14.299581 12.219642 22.619337 8.809742 9.179731-3.73989 13.749597-16.009531 8.769743-24.92927-3.099909-5.44984-8.809742-8.88974-15.079558-9.069734h-0.469986z m-282.481724 0c-11.649659 0.109997-21.189379 13.949591-15.839536 25.189262 3.809888 8.029765 14.299581 12.219642 22.619337 8.809742 9.179731-3.73989 13.749597-16.009531 8.769743-24.92927-3.099909-5.44984-8.809742-8.88974-15.079558-9.069734h-0.469986z m706.189311 0c-11.649659 0.109997-21.189379 13.949591-15.839536 25.189262 3.809888 8.029765 14.299581 12.219642 22.619337 8.809742 9.129733-3.729891 13.749597-15.909534 8.829741-24.839273-3.07991-5.499839-8.829741-8.979737-15.129557-9.159731h-0.479985z m123.706375-635.57138H35.308966v529.644483h953.352069V247.162759zM511.985 670.880345H123.586379c-1.309962-0.159995-2.649922-0.159995-3.939884-0.439987a17.889476 17.889476 0 0 1-11.96965-9.54972c-1.539955-3.209906-1.35996-4.199877-1.749948-7.659776V370.749138c0.389989-3.459899 0.209994-4.469869 1.749948-7.659775 2.369931-4.809859 6.759802-8.309757 11.96965-9.549721 1.289962-0.299991 2.629923-0.299991 3.939884-0.439987H511.985l3.939885 0.439987c2.489927 0.869975 5.009853 1.769948 7.059793 3.4099 3.119909 2.489927 5.329844 6.039823 6.209818 9.869711 0.299991 1.289962 0.299991 2.629923 0.439987 3.939885v282.471724c-0.299991 2.629923-0.619982 5.299845-1.749948 7.659776-1.729949 3.579895-4.699862 6.529809-8.239759 8.239759-3.189907 1.529955-4.199877 1.35996-7.659776 1.749948z m247.672744-317.790689c49.238557 0.229993 97.457145 24.379286 127.076277 64.208118 34.248997 46.07865 40.918801 111.046747 15.609543 163.555209-21.309376 44.208705-64.248118 77.627726-112.656699 87.077449-49.698544 9.689716-103.646963-5.949826-140.495884-41.278791a160.133309 160.133309 0 0 1-47.398612-92.477291c-6.899798-49.348554 10.719686-101.457028 47.068621-136.545999a160.75829 160.75829 0 0 1 109.776784-44.538695h1.01997z m-265.332226 35.308965h-353.089656v247.162759h353.089656V388.398621z m264.422253 0c-44.648692 0.209994-88.427409 26.249231-109.496792 67.018037-20.589397 39.898831-17.279494 91.187328 9.339726 128.366239 22.759333 31.779069 61.08821 51.778483 100.557054 51.778483 45.888656 0 90.867338-27.489195 111.396737-70.057947 19.539428-40.538812 14.759568-91.837309-13.049618-128.336241-23.389315-30.479107-59.528256-48.46858-97.94713-48.778571h-0.799977v0.01z m194.604299-176.544828V35.308966H70.617931v176.544827h70.617931v-38.348876a53.982418 53.982418 0 0 1-34.79898-42.548754c-2.299933-16.39952 3.619894-33.719012 15.449547-45.288673a53.653428 53.653428 0 0 1 36.668926-15.059559h0.66998c19.689423 0.399988 37.608898 11.439665 46.818629 28.849155 7.419783 14.459576 7.639776 32.42905 0.559983 47.088621-5.949826 12.359638-17.089499 21.799361-30.069119 26.499223v38.808863h105.926897v-38.348876a53.973419 53.973419 0 0 1-34.82898-42.878744 53.911421 53.911421 0 0 1 15.70954-45.158677 53.404435 53.404435 0 0 1 36.438932-14.849565h0.669981c19.689423 0.399988 37.608898 11.439665 46.818628 28.849155 7.419783 14.459576 7.639776 32.42905 0.559984 47.08862-5.949826 12.359638-17.089499 21.799361-30.069119 26.499224v38.808863H423.687587v-38.348876a53.964419 53.964419 0 0 1-34.79898-42.548754c-2.299933-16.39952 3.619894-33.719012 15.469547-45.288673a53.559431 53.559431 0 0 1 36.648926-15.059559h0.66998c19.909417 0.409988 37.998887 11.699657 47.09862 29.409139a53.667428 53.667428 0 0 1 0.279992 46.518637c-5.949826 12.359638-17.089499 21.799361-30.069119 26.499223v38.808863h105.926897v-38.348876a53.964419 53.964419 0 0 1-34.798981-42.548754c-2.299933-16.39952 3.619894-33.719012 15.469547-45.288673a53.559431 53.559431 0 0 1 36.648926-15.059559h0.669981c19.909417 0.409988 37.998887 11.699657 47.09862 29.409139a53.667428 53.667428 0 0 1 0.279992 46.518637c-5.949826 12.359638-17.089499 21.799361-30.069119 26.499224v38.808863h105.926896V173.494917a53.964419 53.964419 0 0 1-34.79898-42.548753c-2.299933-16.39952 3.619894-33.719012 15.469547-45.288673a53.559431 53.559431 0 0 1 36.648926-15.059559h0.66998c19.909417 0.409988 37.998887 11.699657 47.09862 29.409138a53.667428 53.667428 0 0 1 0.279992 46.518637c-5.949826 12.359638-17.089499 21.799361-30.069119 26.499224v38.808863h105.926897v-38.348877a53.841423 53.841423 0 0 1-34.158999-38.948858 53.948419 53.948419 0 0 1 13.929592-47.988595 53.512432 53.512432 0 0 1 37.548899-15.959532h0.669981c19.629425 0.179995 38.818863 12.199643 47.388611 29.999121a53.704427 53.704427 0 0 1 0 45.938654c-5.949826 12.359638-17.089499 21.799361-30.069119 26.499224v38.808863l70.67793 0.019999zM300.001211 105.926897c-11.629659 0.109997-21.189379 13.949591-15.839536 25.189262 3.809888 8.029765 14.299581 12.219642 22.619337 8.809742 9.159732-3.73989 13.769597-15.999531 8.769743-24.92927-2.999912-5.369843-8.829741-8.929738-15.079558-9.069734h-0.469986z m141.245862 0c-11.59966 0.109997-21.219378 13.879593-15.839536 25.189262 3.809888 8.029765 14.299581 12.219642 22.619337 8.809742 9.159732-3.73989 13.749597-16.009531 8.769743-24.92927-2.999912-5.369843-8.829741-8.929738-15.079558-9.069734h-0.469986z m141.235862 0c-11.59966 0.109997-21.219378 13.879593-15.839536 25.189262 3.809888 8.029765 14.299581 12.219642 22.619337 8.809742 9.159732-3.73989 13.749597-16.009531 8.769744-24.92927-2.999912-5.369843-8.829741-8.929738-15.079559-9.069734h-0.469986z m141.235862 0c-11.59966 0.109997-21.219378 13.879593-15.839536 25.189262 3.809888 8.029765 14.299581 12.219642 22.619338 8.809742 9.159732-3.73989 13.749597-16.009531 8.769743-24.92927-2.999912-5.369843-8.829741-8.929738-15.079558-9.069734h-0.469987z m-564.953448 0c-11.61966 0.109997-21.219378 13.879593-15.839536 25.189262 3.809888 8.029765 14.299581 12.219642 22.619337 8.809742 9.159732-3.73989 13.769597-15.999531 8.769743-24.92927-2.999912-5.369843-8.829741-8.929738-15.079558-9.069734h-0.469986z m706.189311 0c-11.61966 0.109997-21.219378 13.879593-15.839536 25.189262 3.809888 8.029765 14.299581 12.219642 22.619337 8.809742 9.159732-3.73989 13.769597-16.009531 8.769743-24.92927-2.999912-5.369843-8.829741-8.929738-15.079558-9.069734h-0.469986z" fill="#333333" p-id="49097"></path></svg>