<?xml version="1.0" standalone="no"?><!DOCTYPE svg PUBLIC "-//W3C//DTD SVG 1.1//EN" "http://www.w3.org/Graphics/SVG/1.1/DTD/svg11.dtd"><svg t="1766731680917" class="icon" viewBox="0 0 1024 1024" version="1.1" xmlns="http://www.w3.org/2000/svg" p-id="10130" xmlns:xlink="http://www.w3.org/1999/xlink" width="200" height="200"><path d="M998.4 972.8a25.6 25.6 0 0 1-25.6-25.6v-64c0-91.752-74.648-166.4-166.4-166.4H422.4c-91.752 0-166.4 74.648-166.4 166.4v64a25.6 25.6 0 0 1-51.2 0v-64a217.6 217.6 0 0 1 217.6-217.6h384a217.6 217.6 0 0 1 217.6 217.6v64a25.6 25.6 0 0 1-25.6 25.6zM25.6 921.6a25.6 25.6 0 0 1-25.6-25.6v-44.8a185.6 185.6 0 0 1 185.6-185.6 25.6 25.6 0 0 1 0 51.2c-74.112 0-134.4 60.288-134.4 134.4v44.8a25.6 25.6 0 0 1-25.6 25.6z m332.8-307.2a204.8 204.8 0 0 1-87.784-389.88 25.6 25.6 0 0 1 21.968 46.248A154.4 154.4 0 0 0 204.8 409.6c0 84.696 68.904 153.6 153.6 153.6a154.72 154.72 0 0 0 21.976-1.6 25.6 25.6 0 1 1 7.248 50.688A207.008 207.008 0 0 1 358.4 614.4z m512-307.2c0 141.384-114.616 256-256 256S358.4 448.584 358.4 307.2 473.016 51.2 614.4 51.2s256 114.616 256 256zM614.4 102.4c-113.104 0-204.8 91.696-204.8 204.8s91.696 204.8 204.8 204.8 204.8-91.696 204.8-204.8-91.696-204.8-204.8-204.8z" fill="#5C5C66" p-id="10131"></path></svg>