<?xml version="1.0" standalone="no"?><!DOCTYPE svg PUBLIC "-//W3C//DTD SVG 1.1//EN" "http://www.w3.org/Graphics/SVG/1.1/DTD/svg11.dtd"><svg t="1776058848035" class="icon" viewBox="0 0 1024 1024" version="1.1" xmlns="http://www.w3.org/2000/svg" p-id="10911" xmlns:xlink="http://www.w3.org/1999/xlink" width="200" height="200"><path d="M661.1456 427.7248a175.616 175.616 0 0 1-238.592 238.592 38.4 38.4 0 0 1-4.4032 5.2224l-310.272 310.3232a38.4 38.4 0 0 1-54.3232-54.272l310.272-310.3232 1.536-1.4848a175.616 175.616 0 0 1 245.248-245.248 34.304 34.304 0 0 1 1.536-1.536l310.272-310.272a38.4 38.4 0 1 1 54.272 54.272l-310.272 310.272a38.5024 38.5024 0 0 1-5.2736 4.4544z m-83.968 14.9504a98.7648 98.7648 0 1 1-139.6224 139.6736 98.7648 98.7648 0 0 1 139.6224-139.6736z" p-id="10912"></path></svg>