<?xml version="1.0" standalone="no"?><!DOCTYPE svg PUBLIC "-//W3C//DTD SVG 1.1//EN" "http://www.w3.org/Graphics/SVG/1.1/DTD/svg11.dtd"><svg t="1774880493331" class="icon" viewBox="0 0 1024 1024" version="1.1" xmlns="http://www.w3.org/2000/svg" p-id="10092" xmlns:xlink="http://www.w3.org/1999/xlink" width="200" height="200"><path d="M512 1024c-6.4 0-12.8 0-12.8-6.4l-32-19.2c-115.2-57.6-230.4-108.8-332.8-320-6.4 6.4-6.4 0-6.4-6.4v-512c0-12.8 6.4-25.6 25.6-32C300.8 83.2 416 44.8 499.2 0c6.4 0 19.2 0 25.6 6.4 83.2 38.4 198.4 83.2 345.6 128 19.2 0 25.6 12.8 25.6 25.6v512c0 6.4 0 12.8-6.4 12.8-102.4 204.8-230.4 268.8-358.4 332.8l-6.4 6.4H512z m-320-358.4c89.6 179.2 185.6 230.4 300.8 281.6l19.2 6.4c121.6-57.6 230.4-115.2 320-294.4V185.6c-134.4-38.4-236.8-76.8-320-115.2-83.2 38.4-185.6 76.8-320 115.2v480z m320 134.4c-19.2 0-32-12.8-32-32V537.6c-70.4-12.8-128-76.8-128-153.6 0-89.6 70.4-160 160-160s160 70.4 160 160c0 76.8-57.6 140.8-128 153.6v70.4H576c19.2 0 32 12.8 32 32s-12.8 32-32 32h-32V768c0 19.2-12.8 32-32 32z m0-512c-51.2 0-96 44.8-96 96S460.8 480 512 480 608 435.2 608 384 563.2 288 512 288z" fill="#1F232F" p-id="10093"></path></svg>