<?xml version="1.0" standalone="no"?><!DOCTYPE svg PUBLIC "-//W3C//DTD SVG 1.1//EN" "http://www.w3.org/Graphics/SVG/1.1/DTD/svg11.dtd"><svg t="1775399550720" class="icon" viewBox="0 0 1024 1024" version="1.1" xmlns="http://www.w3.org/2000/svg" p-id="10090" xmlns:xlink="http://www.w3.org/1999/xlink" width="200" height="200"><path d="M139.7 185c2.1 2.2 32.2 34 65.2 86.1 30.7 48.4 70.2 124.5 83.8 212.7l4.1 26.7-52.2-50.4c-4.3-4.2-10-6.5-16-6.5h-0.4c-6.2 0.1-12 2.6-16.2 7.1-4.3 4.4-6.6 10.3-6.5 16.5s2.6 12 7.1 16.2l80.2 77.4c2.2 2.1 4.8 3.8 7.8 5 6.1 2.4 12.6 3.6 19.3 3.6 7.1 0 13.8-1.4 20-4.1l0.3-0.1c2.9-1.2 5.6-2.9 7.8-5.3l75-77.1c8.9-9.2 8.7-23.8-0.5-32.7-4.5-4.3-10.3-6.6-16.5-6.6-6.2 0.1-11.9 2.6-16.3 7l-47 48.4-2.4-18.8c-4.1-32.5-11.7-65.6-22.5-98.5-13.8-41.8-33-83.8-57.2-124.9-38.5-65.3-76.4-106.4-83.6-113.9l-0.1-0.1c-8.9-9.1-23.5-9.3-32.7-0.5-9.1 8.9-9.3 23.6-0.5 32.8z" p-id="10091"></path><path d="M391.2 618.9h-0.4c-6.2 0.1-12 2.6-16.2 7.1-4.3 4.4-6.6 10.3-6.5 16.5 0.1 6.2 2.6 12 7.1 16.2l109.6 105.9c2.2 2.1 4.8 3.8 7.8 5 7.6 2.9 15.4 4.4 23.3 4.4 8.4 0 16.7-1.6 24.6-4.9 3-1.2 5.6-3 7.9-5.3L651 658.1c4.3-4.4 6.7-10.3 6.6-16.5-0.1-6.2-2.6-11.9-7-16.3-4.5-4.3-10.3-6.7-16.5-6.6-6.2 0.1-11.9 2.6-16.3 7l-78.8 81V164.5c0-12.8-10.4-23.1-23.1-23.1-12.8 0-23.1 10.4-23.1 23.1v543.3l-85.4-82.4c-4.5-4.2-10.2-6.5-16.2-6.5z" p-id="10092"></path><path d="M683.2 570c2.4 2.4 5.1 4.2 7.9 5.3 6.6 2.7 13.4 4 20.4 4 6.3 0 12.8-1.2 19.4-3.5 2.9-1.2 5.5-2.8 7.7-4.9l80.2-77.4c4.4-4.3 7-10.1 7.1-16.2 0.1-6.2-2.2-12-6.5-16.5-8.9-9.2-23.5-9.5-32.7-0.6l-52.2 50.4 4.1-26.7c3.9-25.5 10.2-51.3 18.5-76.8 12.8-38.8 30.5-77.6 52.7-115.3 37.7-64.4 75.9-104.8 77.8-106.8 8.9-9.2 8.7-23.9-0.5-32.7-9.2-8.9-23.9-8.7-32.7 0.5l-0.1 0.1c-4.4 4.6-44.2 47.2-83.6 113.9-24.2 41-43.4 83-57.2 124.9-10.9 32.9-18.5 66.1-22.6 98.7l-2.4 18.8-47-48.4c-4.3-4.4-10.1-6.9-16.3-7-6.2-0.1-12 2.2-16.5 6.6-9.1 8.9-9.4 23.6-0.5 32.7l75 76.9z" p-id="10093"></path><path d="M897 504.1c-12.8 0-23.1 10.4-23.1 23.1V705c0 34.9-13.7 67.9-38.6 92.8-24.9 24.9-57.8 38.6-92.8 38.6h-461c-34.9 0-67.9-13.7-92.8-38.6-24.9-24.9-38.6-57.8-38.6-92.8V527.2c0-12.8-10.4-23.1-23.1-23.1-12.8 0-23.1 10.4-23.1 23.1V705c0 47.3 18.5 91.8 52.1 125.5 33.6 33.6 78.2 52.1 125.5 52.1h461c47.3 0 91.8-18.5 125.5-52.1 33.6-33.6 52.1-78.2 52.1-125.5V527.2c0-12.7-10.3-23.1-23.1-23.1z" p-id="10094"></path></svg>