<?xml version="1.0" standalone="no"?><!DOCTYPE svg PUBLIC "-//W3C//DTD SVG 1.1//EN" "http://www.w3.org/Graphics/SVG/1.1/DTD/svg11.dtd"><svg t="1766825107995" class="icon" viewBox="0 0 1024 1024" version="1.1" xmlns="http://www.w3.org/2000/svg" p-id="1669" xmlns:xlink="http://www.w3.org/1999/xlink" width="200" height="200"><path d="M421.738667 348.032l-234.666667-0.021333a21.333333 21.333333 0 0 1 0-42.666667l234.666667 0.021333a21.333333 21.333333 0 0 1 0 42.666667zM485.738667 433.365333h-298.666667a21.333333 21.333333 0 0 1 0-42.666666h298.666667a21.333333 21.333333 0 0 1 0 42.666666zM357.738667 517.397333h-170.666667a21.333333 21.333333 0 0 1 0-42.666666h170.666667a21.333333 21.333333 0 0 1 0 42.666666zM710.72 687.744c-70.592 0-128-57.408-128-128s57.408-128 128-128 128 57.408 128 128-57.408 128-128 128z m0-213.333333c-47.061333 0-85.333333 38.272-85.333333 85.333333s38.272 85.333333 85.333333 85.333333 85.333333-38.272 85.333333-85.333333c0-47.04-38.272-85.333333-85.333333-85.333333z" fill="#515151" p-id="1670"></path><path d="M892.053333 856.96h-42.666666c0-82.325333-62.208-149.333333-138.666667-149.333333s-138.666667 67.008-138.666667 149.333333h-42.666666c0-105.877333 81.344-192 181.333333-192s181.333333 86.122667 181.333333 192z" fill="#515151" p-id="1671"></path><path d="M891.221333 860.928h-725.333333c-47.061333 0-85.333333-38.272-85.333333-85.333333v-116.906667a21.333333 21.333333 0 1 1 42.666666 0v116.906667c0 23.530667 19.136 42.666667 42.666667 42.666666h725.333333c23.530667 0 42.666667-19.136 42.666667-42.666666v-554.666667c0-23.530667-19.136-42.666667-42.666667-42.666667h-725.333333c-23.530667 0-42.666667 19.136-42.666667 42.666667v245.781333a21.333333 21.333333 0 0 1-42.666666 0V220.928c0-47.061333 38.272-85.333333 85.333333-85.333333h725.333333c47.061333 0 85.333333 38.272 85.333334 85.333333v554.666667c0 47.061333-38.272 85.333333-85.333334 85.333333z" fill="#515151" p-id="1672"></path><path d="M100.778667 562.709333m-32 0a32 32 0 1 0 64 0 32 32 0 1 0-64 0Z" fill="#515151" p-id="1673"></path></svg>